<mxfile host="app.diagrams.net" modified="2022-06-17T12:31:20.476Z" agent="5.0 (Windows)" etag="_ofVbiJ4B_ud4fDCMm0n" version="18.1.3" type="github">
  <diagram id="FmQxw1o3vz-DGnGz7-CZ" name="Page-1">
    <mxGraphModel dx="1207" dy="780" grid="1" gridSize="10" guides="1" tooltips="1" connect="1" arrows="1" fold="1" page="1" pageScale="1" pageWidth="850" pageHeight="1100" math="0" shadow="0">
      <root>
        <mxCell id="0" />
        <mxCell id="1" parent="0" />
        <mxCell id="I3yJWbzHCqkSyugYEGjo-7" value="&lt;div&gt;Professionnel&lt;/div&gt;&lt;div&gt;&lt;br&gt;&lt;/div&gt;" style="shape=umlFrame;whiteSpace=wrap;html=1;width=100;height=30;" vertex="1" parent="1">
          <mxGeometry x="40" y="40" width="280" height="220" as="geometry" />
        </mxCell>
        <UserObject label="Photo&amp;nbsp;&amp;nbsp;&amp;nbsp; Description&lt;br&gt;nom&lt;br&gt;" treeRoot="1" id="I3yJWbzHCqkSyugYEGjo-2">
          <mxCell style="align=left;treeFolding=1;treeMoving=1;newEdgeStyle={&quot;edgeStyle&quot;:&quot;elbowEdgeStyle&quot;,&quot;startArrow&quot;:&quot;none&quot;,&quot;endArrow&quot;:&quot;none&quot;};whiteSpace=wrap;html=1;" vertex="1" parent="1">
            <mxGeometry x="50" y="80" width="110" height="50" as="geometry" />
          </mxCell>
        </UserObject>
        <UserObject label="Photo&amp;nbsp;&amp;nbsp;&amp;nbsp; Description&lt;br&gt;nom&lt;br&gt;" treeRoot="1" id="I3yJWbzHCqkSyugYEGjo-3">
          <mxCell style="align=left;treeFolding=1;treeMoving=1;newEdgeStyle={&quot;edgeStyle&quot;:&quot;elbowEdgeStyle&quot;,&quot;startArrow&quot;:&quot;none&quot;,&quot;endArrow&quot;:&quot;none&quot;};whiteSpace=wrap;html=1;" vertex="1" parent="1">
            <mxGeometry x="50" y="130" width="110" height="50" as="geometry" />
          </mxCell>
        </UserObject>
        <UserObject label="Photo&amp;nbsp;&amp;nbsp;&amp;nbsp; Description&lt;br&gt;nom&lt;br&gt;" treeRoot="1" id="I3yJWbzHCqkSyugYEGjo-4">
          <mxCell style="align=left;treeFolding=1;treeMoving=1;newEdgeStyle={&quot;edgeStyle&quot;:&quot;elbowEdgeStyle&quot;,&quot;startArrow&quot;:&quot;none&quot;,&quot;endArrow&quot;:&quot;none&quot;};whiteSpace=wrap;html=1;" vertex="1" parent="1">
            <mxGeometry x="50" y="180" width="110" height="50" as="geometry" />
          </mxCell>
        </UserObject>
        <UserObject label="&lt;div&gt;voir Produit&lt;/div&gt;&lt;div&gt;voir Soin&lt;/div&gt;&lt;div&gt;voir Panier&lt;br&gt;&lt;/div&gt;" treeRoot="1" id="I3yJWbzHCqkSyugYEGjo-5">
          <mxCell style="whiteSpace=wrap;html=1;align=center;treeFolding=1;treeMoving=1;newEdgeStyle={&quot;edgeStyle&quot;:&quot;elbowEdgeStyle&quot;,&quot;startArrow&quot;:&quot;none&quot;,&quot;endArrow&quot;:&quot;none&quot;};" vertex="1" parent="1">
            <mxGeometry x="190" y="80" width="120" height="60" as="geometry" />
          </mxCell>
        </UserObject>
        <mxCell id="I3yJWbzHCqkSyugYEGjo-8" value="Panier" style="shape=umlFrame;whiteSpace=wrap;html=1;" vertex="1" parent="1">
          <mxGeometry x="40" y="320" width="300" height="250" as="geometry" />
        </mxCell>
        <UserObject label="&lt;div align=&quot;right&quot;&gt;Nom: __________&lt;/div&gt;&lt;div align=&quot;right&quot;&gt;Tel:__________&lt;/div&gt;&lt;div align=&quot;right&quot;&gt;Email:__________&lt;/div&gt;&lt;div align=&quot;right&quot;&gt;Adresse:__________&lt;/div&gt;" treeRoot="1" id="I3yJWbzHCqkSyugYEGjo-9">
          <mxCell style="whiteSpace=wrap;html=1;align=center;treeFolding=1;treeMoving=1;newEdgeStyle={&quot;edgeStyle&quot;:&quot;elbowEdgeStyle&quot;,&quot;startArrow&quot;:&quot;none&quot;,&quot;endArrow&quot;:&quot;none&quot;};" vertex="1" parent="1">
            <mxGeometry x="40" y="500" width="150" height="70" as="geometry" />
          </mxCell>
        </UserObject>
        <mxCell id="I3yJWbzHCqkSyugYEGjo-10" value="&lt;div&gt;Payer&lt;/div&gt;&lt;div&gt;&lt;br&gt;&lt;/div&gt;" style="label;whiteSpace=wrap;html=1;image=img/clipart/Gear_128x128.png" vertex="1" parent="1">
          <mxGeometry x="190" y="510" width="150" height="30" as="geometry" />
        </mxCell>
        <mxCell id="I3yJWbzHCqkSyugYEGjo-11" value="Enregistrer" style="label;whiteSpace=wrap;html=1;image=img/clipart/Gear_128x128.png" vertex="1" parent="1">
          <mxGeometry x="190" y="540" width="150" height="30" as="geometry" />
        </mxCell>
        <UserObject label="&lt;div align=&quot;left&quot;&gt;Produit&lt;/div&gt;&lt;div align=&quot;left&quot;&gt;nom - Description - qté - prixUnitaire - total&lt;br&gt;&lt;/div&gt;" treeRoot="1" id="I3yJWbzHCqkSyugYEGjo-12">
          <mxCell style="whiteSpace=wrap;html=1;align=left;treeFolding=1;treeMoving=1;newEdgeStyle={&quot;edgeStyle&quot;:&quot;elbowEdgeStyle&quot;,&quot;startArrow&quot;:&quot;none&quot;,&quot;endArrow&quot;:&quot;none&quot;};" vertex="1" parent="1">
            <mxGeometry x="45" y="360" width="295" height="50" as="geometry" />
          </mxCell>
        </UserObject>
        <UserObject label="&lt;div align=&quot;left&quot;&gt;Soin&lt;/div&gt;&lt;div align=&quot;left&quot;&gt;nom - Description - qté - prixUnitaire - total&lt;br&gt;&lt;/div&gt;" treeRoot="1" id="I3yJWbzHCqkSyugYEGjo-13">
          <mxCell style="whiteSpace=wrap;html=1;align=left;treeFolding=1;treeMoving=1;newEdgeStyle={&quot;edgeStyle&quot;:&quot;elbowEdgeStyle&quot;,&quot;startArrow&quot;:&quot;none&quot;,&quot;endArrow&quot;:&quot;none&quot;};" vertex="1" parent="1">
            <mxGeometry x="45" y="420" width="295" height="50" as="geometry" />
          </mxCell>
        </UserObject>
        <mxCell id="I3yJWbzHCqkSyugYEGjo-15" value="Acccueil" style="shape=umlFrame;whiteSpace=wrap;html=1;" vertex="1" parent="1">
          <mxGeometry x="425" y="60" width="300" height="200" as="geometry" />
        </mxCell>
      </root>
    </mxGraphModel>
  </diagram>
</mxfile>
